# xmcd CD database file
#
# Track frame offsets:
#	187
#	23529
#	45679
#
# Disc length: 916 seconds
#
# Revision: 0
# Processed by: cddbd v1.5.1PL0 Copyright (c) Steve Scherf et al.
# Submitted via: CDex 1.51
#
DISCID=18039203
DTITLE=UA - ミルクティー
DYEAR=1998
DGENRE=JPop
TTITLE0=ミルクティー
TTITLE1=アントニオの唄
TTITLE2=ミルクティー (Instrumental)
EXTD=YEAR: 1998
EXTT0=
EXTT1=
EXTT2=
PLAYORDER=
